<?xml version="1.0" encoding="utf-8"?>
<!-- Generator: Adobe Illustrator 25.4.1, SVG Export Plug-In . SVG Version: 6.00 Build 0)  -->
<svg version="1.1" id="图层_1" xmlns="http://www.w3.org/2000/svg" xmlns:xlink="http://www.w3.org/1999/xlink" x="0px" y="0px"
	 width="294.6px" height="400px" viewBox="0 0 294.6 400" enable-background="new 0 0 294.6 400" xml:space="preserve">
<path fill="#8F8F8F" d="M201.6,92.6L173.8,98l1.9,13.9l2.8,16.9l14.1-9.8L201.6,92.6z"/>
<path fill="#DDDDDC" d="M170.5,79.8l7.7,20.9l23.4-8.1L170.5,79.8z"/>
<path fill="#8F8F8F" d="M181.4,146.4l5.4,4.4l11.4,2.3l10-21.3l-15.9,5.3L181.4,146.4z"/>
<path fill="#C4C4C4" d="M192.5,119h-18.8l7.7,27.4l26.8-14.5L192.5,119z"/>
<path fill="#C4C4C4" d="M77,137.2l-23,6.3L47.4,161l13.8,2.5l17.6-15L77,137.2z"/>
<path fill="#8F8F8F" d="M74.1,121.2l-31.9,8.4l11.9,13.9l21.7,4.1l6.3-10.4L74.1,121.2z"/>
<path fill="#DDDDDC" d="M74.1,98.2l-6.3,1.4L63,93.4l-20.9,36.1l32.6-4.5L74.1,98.2z"/>
<path fill="#8F8F8F" d="M92.2,152.3L47.4,161l9.6,7.1l38.5-6.3L92.2,152.3z"/>
<path fill="#8A6651" d="M247.3,154.1l8.5-7.5l7.4-12.5l-0.5-28.7l-17.1,17.4l-5.1,20L247.3,154.1z"/>
<path fill="#35785D" d="M292.4,52.9l-2.6,2L278,75.7l-4.9,6.9l1.2,14l-11.1,7.5l1.7,5.5l-6.9,16l-6.4,4.2l-7.5,16.5l11.8,0.2
	l12.9-36.7l11.9-10l-0.5-17.5L292.4,52.9z"/>
<path fill="#53AF8A" d="M259.5,129.1l5.4-19.4l-1.7-5.5l-11.6,25.7L259.5,129.1z"/>
<path fill="#53AF8A" d="M289.8,54.9l2.6-2l-4.4,0.3l-14.9,29.4l6.1-3.6L289.8,54.9z"/>
<path fill="#DFBCA4" d="M237.1,129.9l4.5-15.4l18.9-12.3l2.8,1.9l-3.8,8.2l-7.8,6.9l0,10.7l-3.3,7.3l-7.8,5.6L237.1,129.9z"/>
<path fill="#C3977A" d="M274.5,105.1l-1.4,32.2l-17.3,9.3l7.4-42.4L274.5,105.1z"/>
<path fill="#738D56" d="M251,174.1L232.1,136l-16.2,20.2l-18,37.5L251,174.1z"/>
<path fill="#99C26C" d="M181.4,146.4l-2.3,22.1l24.3,20l12.5-32.3L181.4,146.4z"/>
<path fill="#5A753C" d="M185.1,198.1l34.4,5.3l21-14.8l5.7-17.4l-42.8,17.4l-18.3-19.4l-29.3-30.3L185.1,198.1z"/>
<path fill="#35785D" d="M237.1,129.9l-5,6l14.1,35.2l-26.7,32.2l7.8,0.7l28.1-30.9L237.1,129.9z"/>
<path fill="#738D56" d="M172.2,202.5l17.8-2.2l-6.6-30.3L172.2,202.5z"/>
<path fill="#738D56" d="M93.2,172.4l-9.9-1.5L57,168.2l35,28.2l2.5,8.3l16,32.5l21.5-21L93.2,172.4z"/>
<path fill="#446024" d="M79.8,209.7L91.3,230l12.1,5.4l8.7-12.4l-17.7-30.8L79.8,209.7z"/>
<path fill="#53AF8A" d="M125.5,170.9c14.9,15.5,29.7,31,44.6,46.6c0.4-22.8,0.9-45.7,1.3-68.5c-0.8-0.5-31.3-2.7-31.3-2.7
	c-2.4,2.1-5.4,5.1-8.1,9.3C128.1,161.4,126.3,167.1,125.5,170.9z"/>
<path fill="#53AF8A" d="M124.2,155.5l-3.2,13.6l-30.1,13.4l45.7,31.7l0.3,0.4l30.1-10.3L124.2,155.5z"/>
<path fill="#71C8A6" d="M82.8,180.1l8.1,2.4l35.6-13.4l-50.7-21.5l-14.6,16L82.8,180.1z"/>
<path fill="#35785D" d="M154.1,134.9l-0.1-0.1l-0.2,0.1L154.1,134.9z"/>
<path fill="#35785D" d="M133.6,209.6l-72.4-46l-4.2,4.6l74.9,48.1l27.6,35.8l15.1-47.8L133.6,209.6z"/>
<path fill="#35785D" d="M124.2,155.5l-16.6-11.4l-30.6-7l-1.2,10.4l50.7,21.5L124.2,155.5z"/>
<path fill="#35785D" d="M126.6,168.2c5.2-7.1,10.3-14.2,15.5-21.3c-2-5.1-4-10.2-6-15.3c-3.1,4.9-6.2,9.8-9.3,14.6
	C126.7,153.6,126.6,160.9,126.6,168.2z"/>
<g transform="matrix(1,0,0,1,126.2750015258789,39.935001373291016)" opacity="0.1">
	<path fill="#2B2B2B" d="M-113.5,349.3l99,10.8L139,347.8L-6.7,337.2L-113.5,349.3z"/>
</g>
<path fill="#35785D" d="M140,361.2v13.7l16.9-5.2l9.6-7.3l3.1-12.3L140,361.2z"/>
<path fill="#35785D" d="M67.5,348.9l-5.1,26l14.6-0.1l13.9-8.8l3.1-6.6L67.5,348.9z"/>
<path fill="#53AF8A" d="M166.5,362.3L140,374.8v7.1l22.5,1.9l27.6-1.9L166.5,362.3z"/>
<path fill="#35785D" d="M140,381.9h50v6.8h-50V381.9z"/>
<path fill="#53AF8A" d="M90.9,366.1l6.2,19.6l-17.3,3.4L60,385.7l2.5-10.8L90.9,366.1z"/>
<path fill="#35785D" d="M60,385.7h37.1v6.8H60V385.7z"/>
<path fill="#728C56" d="M12.7,348.6"/>
<path fill-opacity="0" stroke="#2A2A2A" stroke-width="4" d="M12.7,348.6"/>
<path fill="#738D56" d="M190.2,198.6l-1.7,2.5l-49.9,73.4L112.2,223l-20.9,7L51.8,340.1l53.4,32.3l0.2,0.1l88.6-34.9L190.2,198.6z"
	/>
<path fill="#99C26C" d="M171.6,204.3l-17.5,30.5l-8.9-8L132,216.3l-19.8,6.8L106.1,365l79-166.9l-12.9,4.4L171.6,204.3z"/>
<path fill="#35785D" d="M106.1,365l-54.3-24.9l-2.4,7.6l55.8,24.8l0.2,0.1l88.8-26.7l-0.2-8.2L106.1,365z"/>
<path fill="#728C56" d="M189.4,197.3l-22,0.4c0,0-1.6,28.9-2,29.3s24.6-2.5,24.6-2.5L189.4,197.3z"/>
<path fill="#C3977A" d="M37.1,259.3l-10.3,11.9l-4.3,5l5.5,5.1l13.5-18.7L37.1,259.3z"/>
<path fill="#DFBCA4" d="M26.8,240.1l-13.2,5l-5.4,11.6l6.8,15.9l7.4,3.5l0,0l10.4-10.7L26.8,240.1z"/>
<path fill="#8A6651" d="M37.6,258.7L18,235.5l-4.4,9.6l19.3,20.3l4.2-6.1L37.6,258.7z"/>
<path fill="#C3977A" d="M22.4,276.1L8.2,256.7l-5.5,18.9l9,13L22.4,276.1L22.4,276.1z"/>
<path fill="#99C26C" d="M57,168.2l-40.4,53.7l48.7,7.4l19.2-46.8L57,168.2z"/>
<path fill="#738D56" d="M16.6,221.9L16.6,221.9L36,260.8l11-3.8l36.3-72.6L16.6,221.9z"/>
<path fill="#5A753C" d="M84.5,182.5L36,256.7l17.6-1.3l10.1-6.1l30.8-57.1L84.5,182.5z"/>
<path fill="#35785D" d="M32.9,265.4l26.1-8.7l4.7-7.4L36,256.7l-19.4-34.8l-4.9,6.5L32.9,265.4z"/>
<path fill="#DFBCA4" d="M183.4,131.3l-16.6-97.1l-27.6-21.3l-17.5,14.8l-36.4-2.4l-6.3,5.8L92,56.8l22.6,93.3l33.3-9.2L183.4,131.3z
	"/>
<path fill="#EBEBEB" d="M139.1,18.4l27.6,15.7l-16.5-22l-13.6-4l-2.9,4.7L139.1,18.4z"/>
<path fill="#DDDDDC" d="M109.5,20.8l15,13.4l14.6-15.7l-2.4-10.2L108.9,0L109.5,20.8z"/>
<path fill="#C4C4C4" d="M82.3,20.8l0.3,3.3l2.2,1.8l39.6,8.3l0.1,0L108.9,0L82.3,20.8z"/>
<path fill="#C3977A" d="M95.1,42.2l-9.9-16.9L68.8,53.1l8.2,9.5l1.8,24.9l-7.4-8.3L66,87.4l-9,3.3l7.4,21.7l7.6-1.9l5,1l-2.3,13.6
	l2.3,12.1l32.5,12.6l6,0.4L95.1,42.2z"/>
<path fill="#8A6651" d="M72.1,110.5l2.7,14.6l7.2-17.2L72.1,110.5z"/>
<path fill="#8A6651" d="M63,93.4l12.8,8.5l-3.4-11.6L63,93.4z"/>
<path fill="#8A6651" d="M131.1,145.6l-21.6,4.3l16.4,6.4L131.1,145.6z"/>
<path fill="#8F8F8F" d="M52.5,44.5l13.5,43l4.3-1.6l9.2,5.3l2.7-33.8l-10.6-6.2l13.5-25.8l-2.8-4.5L52.5,44.5z"/>
<path fill="#35785D" d="M133.6,209.6l-72.4-46l-4.2,4.6l75,48.1l27.6,35.8l15-47.8L133.6,209.6z"/>
<path fill="#C4C4C4" d="M143.1,100.7l-24.4,21.9l14.9,86.9l27.4,25.2l2.1,3.7l-0.9,3.7l-2.6,9.9l15,10.4l-10-106.3l-14.2-53.9
	L143.1,100.7z"/>
<path fill="#EBEBEB" d="M177.4,232.3l12.8-33.7l-14.6-86.7l-21.1-13.7l-4.1,4.1l24.2,160.2l8.2-16l-4.2-6.8l-2.3-3.4L177.4,232.3z"
	/>
<path fill="#446024" d="M178.6,239.7l-16.4,2.5l-1.1-7.4l16.4-2.5L178.6,239.7z"/>
<path fill="#8A6651" d="M161.4,114.9l-22.7,3.9l-1-4.6l22.7-3.9L161.4,114.9z"/>
<path fill="#8F8F8F" d="M174.5,79.5l0.1,0.3L174.5,79.5L174.5,79.5z"/>
<path fill="#C3977A" d="M107.2,64l35.9,36.7l-1.8-31.2l-13.2-12.7l11.2-2l5.8,16.1l5.4,8.9l7.5-26.6l-15-2.3l-3.6,4l-11.2,2
	l-6.5-3.2L107.2,64z"/>
<path fill="#8F8F8F" d="M120.3,49.6l1.3,4L107.2,64l-1.8-4.7L120.3,49.6z"/>
<path fill="#8F8F8F" d="M141.3,46l1.6,4.8l15,2.3l1-3.2L141.3,46z"/>
<path fill="#E8C9B6" d="M139.2,54.8l8.1,11.6l7.1,31.9l-11.4,2.5l-6.2-31.5l-8.9-12.5L139.2,54.8z"/>
<path fill="#8F8F8F" d="M154.5,98.2l-11.4,2.5l7.7,4.7L154.5,98.2z"/>
<path fill="#2B2B2B" d="M121.4,71.8c2.3,0,4.2,1.9,4.2,4.2c0,2.3-1.9,4.2-4.2,4.2s-4.2-1.9-4.2-4.2
	C117.2,73.7,119.1,71.8,121.4,71.8z"/>
<path fill="#2B2B2B" d="M154.5,64.4c2.3,0,4.2,1.9,4.2,4.2c0,2.3-1.9,4.2-4.2,4.2c-2.3,0-4.2-1.9-4.2-4.2
	C150.2,66.2,152.1,64.4,154.5,64.4z"/>
</svg>
